<mxfile host="Electron" agent="Mozilla/5.0 (Windows NT 10.0; Win64; x64) AppleWebKit/537.36 (KHTML, like Gecko) draw.io/24.7.8 Chrome/128.0.6613.36 Electron/32.0.1 Safari/537.36" version="24.7.8">
  <diagram name="Seite-1" id="CopXBPq6HmWG57LF0-_F">
    <mxGraphModel dx="472" dy="311" grid="1" gridSize="10" guides="1" tooltips="1" connect="1" arrows="1" fold="1" page="1" pageScale="1" pageWidth="827" pageHeight="1169" math="0" shadow="0">
      <root>
        <mxCell id="0" />
        <mxCell id="1" parent="0" />
        <mxCell id="FP_q5n_miJgKrwyydgcp-1" value="PlaySwitchCard" style="shape=umlFrame;whiteSpace=wrap;html=1;pointerEvents=0;recursiveResize=0;container=1;collapsible=0;width=160;" parent="1" vertex="1">
          <mxGeometry y="70" width="600" height="120" as="geometry" />
        </mxCell>
        <mxCell id="eaHh7rk958I4vmowddnr-1" style="edgeStyle=orthogonalEdgeStyle;rounded=0;orthogonalLoop=1;jettySize=auto;html=1;entryX=0;entryY=0.5;entryDx=0;entryDy=0;" parent="FP_q5n_miJgKrwyydgcp-1" source="eaHh7rk958I4vmowddnr-2" target="lGEsvjj5w4ZHH0gg2mnU-1" edge="1">
          <mxGeometry relative="1" as="geometry">
            <mxPoint x="120" y="70" as="targetPoint" />
          </mxGeometry>
        </mxCell>
        <mxCell id="eaHh7rk958I4vmowddnr-2" value="" style="ellipse;whiteSpace=wrap;html=1;aspect=fixed;fillColor=#000000;" parent="FP_q5n_miJgKrwyydgcp-1" vertex="1">
          <mxGeometry x="40" y="50" width="40" height="40" as="geometry" />
        </mxCell>
        <mxCell id="eaHh7rk958I4vmowddnr-3" value="" style="ellipse;whiteSpace=wrap;html=1;aspect=fixed;" parent="FP_q5n_miJgKrwyydgcp-1" vertex="1">
          <mxGeometry x="520" y="50" width="40" height="40" as="geometry" />
        </mxCell>
        <mxCell id="eaHh7rk958I4vmowddnr-4" value="" style="ellipse;whiteSpace=wrap;html=1;aspect=fixed;fillColor=#000000;" parent="FP_q5n_miJgKrwyydgcp-1" vertex="1">
          <mxGeometry x="526.41" y="56.40999999999997" width="27.18" height="27.18" as="geometry" />
        </mxCell>
        <mxCell id="eaHh7rk958I4vmowddnr-7" style="edgeStyle=orthogonalEdgeStyle;rounded=0;orthogonalLoop=1;jettySize=auto;html=1;entryX=0;entryY=0.5;entryDx=0;entryDy=0;exitX=1;exitY=0.5;exitDx=0;exitDy=0;" parent="FP_q5n_miJgKrwyydgcp-1" source="lGEsvjj5w4ZHH0gg2mnU-1" target="lGEsvjj5w4ZHH0gg2mnU-2" edge="1">
          <mxGeometry relative="1" as="geometry">
            <mxPoint x="440" y="70" as="sourcePoint" />
            <mxPoint x="520" y="70" as="targetPoint" />
          </mxGeometry>
        </mxCell>
        <mxCell id="eaHh7rk958I4vmowddnr-13" style="edgeStyle=orthogonalEdgeStyle;rounded=0;orthogonalLoop=1;jettySize=auto;html=1;entryX=0;entryY=0.5;entryDx=0;entryDy=0;exitX=1;exitY=0.5;exitDx=0;exitDy=0;" parent="FP_q5n_miJgKrwyydgcp-1" source="lGEsvjj5w4ZHH0gg2mnU-2" target="eaHh7rk958I4vmowddnr-3" edge="1">
          <mxGeometry relative="1" as="geometry">
            <mxPoint x="840" y="70" as="sourcePoint" />
          </mxGeometry>
        </mxCell>
        <mxCell id="eaHh7rk958I4vmowddnr-15" value="Spieler&lt;div&gt;bestätigt&lt;/div&gt;" style="text;html=1;align=center;verticalAlign=middle;resizable=0;points=[];autosize=1;strokeColor=none;fillColor=none;" parent="FP_q5n_miJgKrwyydgcp-1" vertex="1">
          <mxGeometry x="240" y="35" width="70" height="40" as="geometry" />
        </mxCell>
        <mxCell id="lGEsvjj5w4ZHH0gg2mnU-1" value="ChooseOwnFigure" style="rounded=1;whiteSpace=wrap;html=1;" parent="FP_q5n_miJgKrwyydgcp-1" vertex="1">
          <mxGeometry x="120" y="40" width="120" height="60" as="geometry" />
        </mxCell>
        <mxCell id="lGEsvjj5w4ZHH0gg2mnU-2" value="ChooseEnemyFigure" style="rounded=1;whiteSpace=wrap;html=1;" parent="FP_q5n_miJgKrwyydgcp-1" vertex="1">
          <mxGeometry x="320" y="40" width="120" height="60" as="geometry" />
        </mxCell>
        <mxCell id="IGMalISzU3_3lLfwwe_D-1" value="Spieler&lt;div&gt;bestätigt&lt;/div&gt;" style="text;html=1;align=center;verticalAlign=middle;resizable=0;points=[];autosize=1;strokeColor=none;fillColor=none;" vertex="1" parent="FP_q5n_miJgKrwyydgcp-1">
          <mxGeometry x="440" y="30" width="70" height="40" as="geometry" />
        </mxCell>
      </root>
    </mxGraphModel>
  </diagram>
</mxfile>
